<svg width="32" height="24" viewBox="0 0 32 24" fill="none" xmlns="http://www.w3.org/2000/svg">
<path d="M28.7661 24H2.97581C1.33229 24 0 22.6569 0 21V3C0 1.34313 1.33229 0 2.97581 0H28.7661C30.4096 0 31.7419 1.34313 31.7419 3V21C31.7419 22.6569 30.4096 24 28.7661 24ZM6.94355 3.5C5.02614 3.5 3.47177 5.067 3.47177 7C3.47177 8.933 5.02614 10.5 6.94355 10.5C8.86096 10.5 10.4153 8.933 10.4153 7C10.4153 5.067 8.86096 3.5 6.94355 3.5ZM3.96774 20H27.7742V13L22.3486 7.53031C22.0581 7.23744 21.5871 7.23744 21.2965 7.53031L12.8952 16L9.45346 12.5303C9.16294 12.2374 8.6919 12.2374 8.40132 12.5303L3.96774 17V20Z" fill="#F4F8FC"/>
</svg>
