<svg width="28" height="33" viewBox="0 0 28 33" fill="none" xmlns="http://www.w3.org/2000/svg">
<path d="M16.8366 2H3.20261C2.53595 2 2 2.53595 2 3.20261V28.9935V29.5686C2 30.2222 2.53595 30.7582 3.20261 30.7582H24.7974C25.4641 30.7582 26 30.2222 26 29.5556V10.3007M16.8366 2H18.3529C18.6667 2 18.9804 2.13072 19.2026 2.35294L22.4248 5.57516L25.6471 8.79739C25.8693 9.01961 26 9.33333 26 9.64706V10.3137L20.6928 6.6732L16.8366 2ZM16.8366 2L19.2026 8.11111L26 10.3007M16.8366 2V5.54902M26 10.3007H22.0196M16.8366 5.54902V9.09804C16.8366 9.76471 17.3725 10.3007 18.0392 10.3007H22.0196M16.8366 5.54902L18.0392 8.79739L22.0196 10.3007" stroke="#F4F8FC" stroke-width="3"/>
<path d="M8.56274 25.0982V27.2027H7.33398V21.2289H9.66078C10.1052 21.2289 10.4974 21.3073 10.8373 21.4773C11.1771 21.6472 11.4386 21.8694 11.6216 22.1831C11.8046 22.4838 11.8961 22.8237 11.8961 23.2158C11.8961 23.8041 11.7 24.2616 11.2948 24.6014C10.8895 24.9413 10.3405 25.1112 9.63464 25.1112H8.56274V25.0982ZM8.56274 24.0916H9.66078C9.98758 24.0916 10.2359 24.0132 10.4059 23.8563C10.5758 23.6995 10.6673 23.4903 10.6673 23.2027C10.6673 22.9152 10.5758 22.6799 10.4059 22.4969C10.2359 22.3139 10.0007 22.2224 9.68693 22.2224H8.56274V24.0916ZM12.7588 27.1897V21.2158H14.602C15.1248 21.2158 15.5954 21.3335 16.0137 21.5688C16.432 21.8041 16.7588 22.1439 16.981 22.5753C17.2163 23.0067 17.334 23.5034 17.334 24.0655V24.34C17.334 24.889 17.2163 25.3858 16.9941 25.8171C16.7719 26.2485 16.4451 26.5884 16.0268 26.8237C15.6085 27.059 15.1379 27.1766 14.615 27.1897H12.7588ZM13.9876 22.2224V26.2093H14.5758C15.0595 26.2093 15.4255 26.0524 15.6739 25.7387C15.9222 25.425 16.0529 24.9805 16.066 24.3923V24.0786C16.066 23.4773 15.9353 23.0067 15.6869 22.706C15.4386 22.3923 15.0725 22.2354 14.5889 22.2354H13.9876V22.2224ZM21.8046 24.7583H19.4386V27.2027H18.2098V21.2289H22.0922V22.2224H19.4386V23.7648H21.8046V24.7583Z" fill="#F4F8FC" stroke="#F4F8FC" stroke-width="0.7" stroke-miterlimit="10"/>
</svg>
